<svg viewBox="0 0 163.28 37.84" xmlns="http://www.w3.org/2000/svg"><g fill="#3099cc"><path d="m45.63 35h-.63v-2.07a.72.72 0 0 0 -.81-.83 1 1 0 0 0 -.75.32 1 1 0 0 0 -.33.75v1.83h-.68v-3.48h.68v.6a1.58 1.58 0 0 1 1.3-.69 1.28 1.28 0 0 1 .84.27 1.39 1.39 0 0 1 .43 1.12z"/><path d="m49.79 33.26a1.84 1.84 0 1 1 -.54-1.26 1.74 1.74 0 0 1 .54 1.26zm-.7 0a1.13 1.13 0 1 0 -.33.81 1.1 1.1 0 0 0 .33-.81z"/><path d="m56.89 33.26a1.81 1.81 0 0 1 -.52 1.29 1.69 1.69 0 0 1 -1.26.54 1.5 1.5 0 0 1 -1.21-.62v2.44h-.69v-5.39h.69v.53a1.5 1.5 0 0 1 1.21-.62 1.69 1.69 0 0 1 1.26.54 1.81 1.81 0 0 1 .52 1.29zm-.7 0a1.13 1.13 0 0 0 -1.13-1.14 1.08 1.08 0 0 0 -.8.33 1.16 1.16 0 0 0 0 1.62 1.08 1.08 0 0 0 .8.33 1.13 1.13 0 0 0 1.13-1.14z"/><path d="m58.21 35h-.69v-6.06h.69z"/><path d="m62 33.27a1.88 1.88 0 0 1 -.4 1.21 1.5 1.5 0 0 1 -2.27 0 1.87 1.87 0 0 1 -.39-1.21v-1.75h.71v1.75a1.27 1.27 0 0 0 .18.71.71.71 0 0 0 .63.32.74.74 0 0 0 .64-.32 1.19 1.19 0 0 0 .19-.71v-1.75h.71z"/><path d="m66.07 35a1.64 1.64 0 0 1 -.51 1.25 1.87 1.87 0 0 1 -1.31.48 2.15 2.15 0 0 1 -1.53-.6l.44-.53a1.37 1.37 0 0 0 1 .45c.79 0 1.19-.37 1.19-1.12v-.47a1.4 1.4 0 0 1 -1.17.58 1.7 1.7 0 0 1 -1.18-.53 1.79 1.79 0 0 1 1.24-3.08 1.41 1.41 0 0 1 1.17.59v-.5h.68zm-.71-1.74a1.11 1.11 0 1 0 -2.21 0 1.11 1.11 0 1 0 2.21 0z"/><path d="m69.73 33.51h-3v-.76h3z"/><path d="m71.43 30.47a.45.45 0 0 1 -.14.33.43.43 0 0 1 -.33.14.42.42 0 0 1 -.33-.14.46.46 0 0 1 0-.66.48.48 0 0 1 .66 0 .45.45 0 0 1 .14.33zm-.11 4.53h-.73v-3.48h.73z"/><path d="m75.34 35h-.68v-2.07a.72.72 0 0 0 -.81-.83 1 1 0 0 0 -.75.32 1 1 0 0 0 -.33.75v1.83h-.68v-3.48h.68v.6a1.58 1.58 0 0 1 1.3-.69 1.28 1.28 0 0 1 .84.27 1.39 1.39 0 0 1 .43 1.12z"/><path d="m78.92 34a.89.89 0 0 1 -.44.8 1.69 1.69 0 0 1 -.93.25 2.29 2.29 0 0 1 -.94-.21 2.11 2.11 0 0 1 -.79-.55l.45-.5a1.84 1.84 0 0 0 1.28.57c.4 0 .6-.12.6-.37s-.18-.29-.54-.37a7 7 0 0 1 -1-.28.89.89 0 0 1 -.54-.85.92.92 0 0 1 .44-.8 1.57 1.57 0 0 1 .91-.26 2.35 2.35 0 0 1 1.51.52l-.35.49a2.22 2.22 0 0 0 -1.17-.36.69.69 0 0 0 -.37.1.37.37 0 0 0 -.18.31c0 .16.17.29.53.38a6.91 6.91 0 0 1 1 .31.87.87 0 0 1 .53.82z"/><path d="m83.4 33a.6.6 0 0 1 -.18.44.61.61 0 0 1 -.45.19.6.6 0 0 1 -.45-.19.6.6 0 0 1 -.18-.44.61.61 0 0 1 .18-.45.64.64 0 0 1 .45-.19.65.65 0 0 1 .45.19.61.61 0 0 1 .18.45z"/><path d="m89.68 35h-.68v-2.07a.72.72 0 0 0 -.81-.83 1 1 0 0 0 -.75.32 1 1 0 0 0 -.33.75v1.83h-.68v-3.48h.68v.6a1.58 1.58 0 0 1 1.3-.69 1.28 1.28 0 0 1 .84.27 1.39 1.39 0 0 1 .43 1.12z"/><path d="m93.84 33.26a1.84 1.84 0 1 1 -.54-1.26 1.74 1.74 0 0 1 .54 1.26zm-.7 0a1.13 1.13 0 1 0 -.33.81 1.1 1.1 0 0 0 .33-.81z"/><path d="m98.33 30.42a.46.46 0 1 1 -.92.12.46.46 0 0 1 .39-.54.47.47 0 0 1 .53.42zm-1.13 6.64-.5.1v-.72c.29-.08.56-.08.71-.37a.88.88 0 0 0 .08-.42v-4.13h.74v4.32a1.25 1.25 0 0 1 -.16.62 1.39 1.39 0 0 1 -.87.6z"/><path d="m102.24 35h-.7v-.47a1.2 1.2 0 0 1 -1.05.47 1.72 1.72 0 0 1 -1.73-1.73 1.71 1.71 0 0 1 .51-1.27 1.67 1.67 0 0 1 1.22-.51 1.32 1.32 0 0 1 1.05.48v-.48h.7zm-.7-1.73a1 1 0 0 0 -.31-.74 1 1 0 0 0 -1.77.74 1 1 0 0 0 1.77.72 1 1 0 0 0 .31-.72z"/><path d="m106.44 31.52-1.89 3.48-1.89-3.48h.8l1.09 2 1.08-2z"/><path d="m109.83 35h-.7v-.47a1.2 1.2 0 0 1 -1 .47 1.64 1.64 0 0 1 -1.22-.5 1.68 1.68 0 0 1 -.51-1.23 1.71 1.71 0 0 1 .51-1.24 1.65 1.65 0 0 1 1.22-.51 1.34 1.34 0 0 1 1 .48v-.48h.7zm-.7-1.73a1 1 0 1 0 -2.08 0 1 1 0 0 0 1.77.72 1 1 0 0 0 .31-.72z"/><path d="m113.39 34a.89.89 0 0 1 -.44.8 1.68 1.68 0 0 1 -.92.25 2.3 2.3 0 0 1 -1-.21 2 2 0 0 1 -.78-.55l.45-.5a1.83 1.83 0 0 0 1.28.57c.4 0 .6-.12.6-.37s-.19-.29-.55-.37a7 7 0 0 1 -1-.28.88.88 0 0 1 -.53-.85.91.91 0 0 1 .43-.8 1.57 1.57 0 0 1 .91-.26 2.35 2.35 0 0 1 1.51.52l-.35.49a2.19 2.19 0 0 0 -1.17-.36.65.65 0 0 0 -.36.1.36.36 0 0 0 -.19.31c0 .16.18.29.54.38a7.06 7.06 0 0 1 1 .31.87.87 0 0 1 .57.82z"/><path d="m116.94 32-.37.65a1 1 0 0 0 -.48-.33 1.74 1.74 0 0 0 -.57-.11 1 1 0 0 0 -1 1.05 1 1 0 0 0 .3.73 1 1 0 0 0 .74.3 2.43 2.43 0 0 0 1.3-.39v.71a2.47 2.47 0 0 1 -1.3.38 1.72 1.72 0 0 1 -1.74-1.73 1.71 1.71 0 0 1 .51-1.24 1.68 1.68 0 0 1 1.23-.51 2.55 2.55 0 0 1 .75.12 1.84 1.84 0 0 1 .63.37z"/><path d="m119.76 31.52-.27.77a.94.94 0 0 0 -.3 0 .79.79 0 0 0 -.63.32 1.17 1.17 0 0 0 -.23.69v1.7h-.7v-3.48h.7v.71a1.12 1.12 0 0 1 1.43-.71z"/><path d="m121.16 30.47a.48.48 0 0 1 -.48.47.41.41 0 0 1 -.32-.14.46.46 0 0 1 0-.66.44.44 0 0 1 .32-.13.46.46 0 0 1 .48.46zm-.11 4.53h-.74v-3.48h.74z"/><path d="m125.5 33.26a1.77 1.77 0 0 1 -.53 1.29 1.66 1.66 0 0 1 -1.25.54 1.52 1.52 0 0 1 -1.22-.62v2.44h-.68v-5.39h.68v.53a1.52 1.52 0 0 1 1.22-.62 1.66 1.66 0 0 1 1.28.57 1.77 1.77 0 0 1 .5 1.26zm-.7 0a1.13 1.13 0 0 0 -1.93-.81 1.16 1.16 0 0 0 0 1.62 1.14 1.14 0 0 0 1.93-.81z"/><path d="m127.75 32.25h-.67v2.75h-.74v-2.75h-.67v-.73h.67v-1.86h.74v1.86h.67z"/><path d="m132.16 33a.6.6 0 0 1 -.18.44.58.58 0 0 1 -.45.19.65.65 0 0 1 -.63-.63.58.58 0 0 1 .19-.45.63.63 0 0 1 1.07.45z"/><path d="m138.44 35h-.68v-2.07a.72.72 0 0 0 -.81-.83 1 1 0 0 0 -.75.32 1 1 0 0 0 -.32.75v1.83h-.69v-3.48h.69v.6a1.55 1.55 0 0 1 1.29-.69 1.28 1.28 0 0 1 .84.27 1.39 1.39 0 0 1 .43 1.12z"/><path d="m142.6 33.26a1.84 1.84 0 1 1 -.54-1.29 1.74 1.74 0 0 1 .54 1.29zm-.7 0a1.1 1.1 0 0 0 -.33-.81 1.08 1.08 0 0 0 -.8-.33 1.14 1.14 0 0 0 0 2.28 1.08 1.08 0 0 0 .8-.33 1.1 1.1 0 0 0 .33-.81z"/><path d="m149.09 35a1.62 1.62 0 0 1 -.52 1.25 1.86 1.86 0 0 1 -1.31.48 2.17 2.17 0 0 1 -1.53-.6l.44-.53a1.41 1.41 0 0 0 1.05.45c.79 0 1.19-.37 1.19-1.12v-.47a1.44 1.44 0 0 1 -1.18.58 1.79 1.79 0 1 1 0-3.57 1.45 1.45 0 0 1 1.18.59v-.5h.68zm-.72-1.74a1.09 1.09 0 0 0 -1.1-1.1 1.11 1.11 0 0 0 -1.11 1.1 1.11 1.11 0 0 0 1.11 1.1 1.09 1.09 0 0 0 1.1-1.1z"/><path d="m153 33.26a1.09 1.09 0 0 1 0 .26h-2.7a1 1 0 0 0 .35.56 1 1 0 0 0 .61.22 1.17 1.17 0 0 0 1.1-.54l.54.43a2 2 0 0 1 -1.64.81 1.57 1.57 0 0 1 -1.19-.51 1.71 1.71 0 0 1 -.49-1.23 1.69 1.69 0 0 1 .49-1.22 1.55 1.55 0 0 1 1.19-.52 1.58 1.58 0 0 1 1.2.52 1.73 1.73 0 0 1 .54 1.22zm-.73-.3a1.14 1.14 0 0 0 -.36-.53 1 1 0 0 0 -.6-.21.93.93 0 0 0 -.59.21 1 1 0 0 0 -.36.53z"/><path d="m158.4 35h-.71v-2a1 1 0 0 0 -.14-.56.47.47 0 0 0 -.43-.27.71.71 0 0 0 -.62.32 1.29 1.29 0 0 0 -.2.74v1.77h-.71v-2a1.13 1.13 0 0 0 -.14-.56.48.48 0 0 0 -.43-.27.72.72 0 0 0 -.62.32 1.3 1.3 0 0 0 -.2.75v1.76h-.71v-3.48h.71v.63a1.52 1.52 0 0 1 .88-.61.58.58 0 0 1 .19 0 .92.92 0 0 1 .55.17 1 1 0 0 1 .4.55 1.54 1.54 0 0 1 1-.7.62.62 0 0 1 .19 0 1 1 0 0 1 .69.28 1.26 1.26 0 0 1 .34.93z"/><path d="m161.9 34a.87.87 0 0 1 -.44.8 1.66 1.66 0 0 1 -.92.25 2.33 2.33 0 0 1 -.95-.21 2.07 2.07 0 0 1 -.78-.55l.45-.5a1.84 1.84 0 0 0 1.28.57c.4 0 .6-.12.6-.37s-.18-.29-.54-.37a6.59 6.59 0 0 1 -1-.28.89.89 0 0 1 -.54-.85.91.91 0 0 1 .43-.8 1.6 1.6 0 0 1 .91-.26 2.33 2.33 0 0 1 1.51.52l-.35.49a2.16 2.16 0 0 0 -1.16-.36.66.66 0 0 0 -.37.1.36.36 0 0 0 -.19.31c0 .16.18.29.54.38a8 8 0 0 1 1 .31.86.86 0 0 1 .52.82z"/><path d="m55.33 7.18a6.51 6.51 0 0 1 -2 4.78 6.43 6.43 0 0 1 -4.77 1.94h-3.56v7h-2.7v-20.48h6.29a6.47 6.47 0 0 1 4.77 2 6.55 6.55 0 0 1 1.97 4.76zm-2.58 0a4 4 0 0 0 -1.22-2.94 4.09 4.09 0 0 0 -3-1.22h-3.53v8.3h3.57a4.1 4.1 0 0 0 3-1.22 4 4 0 0 0 1.18-2.92z"/><path d="m67.11 15.05a6.28 6.28 0 0 1 -1.34 4.1 4.69 4.69 0 0 1 -3.85 1.77 4.64 4.64 0 0 1 -3.83-1.77 6.33 6.33 0 0 1 -1.33-4.1v-5.93h2.4v5.93a4.23 4.23 0 0 0 .61 2.4 2.7 2.7 0 0 0 4.3 0 4.08 4.08 0 0 0 .65-2.4v-5.93h2.39z"/><path d="m76.62 9.12-.92 2.63a2.68 2.68 0 0 0 -1-.18 2.61 2.61 0 0 0 -2.13 1.1 3.73 3.73 0 0 0 -.77 2.33v5.93h-2.39v-11.81h2.39v2.42a3.88 3.88 0 0 1 3.65-2.62 4.1 4.1 0 0 1 1.17.2z"/><path d="m88.34 15a5.3 5.3 0 0 1 -.07.88h-8.88a3.46 3.46 0 0 0 1.2 1.87 3.16 3.16 0 0 0 2.06.74 4 4 0 0 0 3.72-1.8l1.81 1.46a6.57 6.57 0 0 1 -5.53 2.74 5.35 5.35 0 0 1 -4-1.75 6 6 0 0 1 0-8.29 5.52 5.52 0 0 1 8.08 0 5.87 5.87 0 0 1 1.61 4.15zm-2.46-1a3.48 3.48 0 0 0 -1.22-1.78 3.18 3.18 0 0 0 -2-.71 3.23 3.23 0 0 0 -2 .71 3.48 3.48 0 0 0 -1.24 1.78z"/><path d="m113.37 20.92h-12.86v-20.5h2.72v17.76h10.14z"/><path d="m118.64 5.58a1.6 1.6 0 0 1 -1.6 1.6 1.5 1.5 0 0 1 -1.1-.47 1.56 1.56 0 0 1 -.46-1.13 1.54 1.54 0 0 1 1.52-1.58 1.59 1.59 0 0 1 1.14.45 1.49 1.49 0 0 1 .5 1.13zm-.37 15.34h-2.48v-11.8h2.48z"/><path d="m131.87 27.38h-2.39v-8.09a4.45 4.45 0 0 1 -3.54 1.63 5.89 5.89 0 0 1 -5.88-5.87 5.76 5.76 0 0 1 1.73-4.19 5.63 5.63 0 0 1 4.15-1.74 4.1 4.1 0 0 1 3.54 1.62v-1.62h2.39zm-2.39-12.33a3.57 3.57 0 0 0 -3.54-3.54 3.33 3.33 0 0 0 -2.46 1 3.46 3.46 0 0 0 -1 2.5 3.45 3.45 0 0 0 3.48 3.47 3.45 3.45 0 0 0 2.49-1 3.3 3.3 0 0 0 1.03-2.43z"/><path d="m144.51 15.05a6.27 6.27 0 0 1 -1.33 4.1 4.72 4.72 0 0 1 -3.86 1.77 4.65 4.65 0 0 1 -3.83-1.77 6.32 6.32 0 0 1 -1.32-4.1v-5.93h2.39v5.93a4.23 4.23 0 0 0 .62 2.4 2.39 2.39 0 0 0 2.14 1.07 2.44 2.44 0 0 0 2.16-1.07 4.15 4.15 0 0 0 .64-2.4v-5.93h2.39z"/><path d="m149.46 5.58a1.62 1.62 0 0 1 -1.61 1.6 1.51 1.51 0 0 1 -1.1-.47 1.59 1.59 0 0 1 -.45-1.13 1.52 1.52 0 0 1 .45-1.11 1.5 1.5 0 0 1 1.1-.45 1.58 1.58 0 0 1 1.14.45 1.5 1.5 0 0 1 .47 1.11zm-.38 15.34h-2.48v-11.8h2.48z"/><path d="m162.66 20.92h-2.37v-1.6a4.07 4.07 0 0 1 -3.54 1.6 5.87 5.87 0 0 1 -5.87-5.87 5.75 5.75 0 0 1 1.72-4.19 5.64 5.64 0 0 1 4.15-1.74 4.47 4.47 0 0 1 3.54 1.62v-10.32h2.37zm-2.37-5.87a3.53 3.53 0 0 0 -7 0 3.36 3.36 0 0 0 1 2.46 3.55 3.55 0 0 0 5 0 3.3 3.3 0 0 0 1-2.46z"/><path d="m8.26 29.89a18.13 18.13 0 0 0 3.64-5.74s.41 3.58-3.64 5.74zm-1.45-17.76s-6.32 7.79-6.32 11.77 2.85 7.27 6.31 7.27 6.32-3.29 6.32-7.27-6.31-11.77-6.31-11.77z"/><path d="m24.64 34.39a30.58 30.58 0 0 0 6.11-9.61s.67 5.99-6.11 9.61zm2-25.81c-2.45-3.75-4.87-6.91-5.87-8.19-1 1.28-3.43 4.44-5.85 8.19a64.63 64.63 0 0 0 -4 7.07c1.72 2.63 3.48 5.91 3.48 8.25a8.78 8.78 0 0 1 -3.53 7.19 13.24 13.24 0 0 0 1.42 2 11.3 11.3 0 0 0 8.52 4.11 11.3 11.3 0 0 0 8.51-4.11 15.1 15.1 0 0 0 3.6-9.93c0-3.71-3.09-9.66-6.27-14.54z"/><path d="m32.17 16 .13.3c.09.19.17.39.25.58a15.93 15.93 0 0 0 3-4.84 5.32 5.32 0 0 1 -3 4.92l.28.7a6.46 6.46 0 0 0 3.91-6.14c0-3.39-5-9.62-5.24-9.88l-.44-.64-.48.59a43 43 0 0 0 -3.58 5.3c.23.34.45.67.67 1a64.93 64.93 0 0 1 4.5 8.11z"/></g></svg>