<svg viewBox="0 0 128 128" xmlns="http://www.w3.org/2000/svg"><g fill="#3099cc"><path d="m4.07 111.91h-.73v-2.2c0-.59-.28-.89-.85-.89a1.1 1.1 0 0 0 -.8.34 1.11 1.11 0 0 0 -.35.8v2h-.72v-3.7h.72v.63a1.68 1.68 0 0 1 1.38-.72 1.33 1.33 0 0 1 .89.29 1.43 1.43 0 0 1 .46 1.18z"/><path d="m8.48 110.06a1.87 1.87 0 0 1 -.57 1.37 2 2 0 0 1 -2.74 0 1.87 1.87 0 0 1 -.57-1.37 1.84 1.84 0 0 1 .57-1.37 1.93 1.93 0 0 1 2.74 0 1.84 1.84 0 0 1 .57 1.37zm-.75 0a1.19 1.19 0 0 0 -1.19-1.21 1.14 1.14 0 0 0 -.85.36 1.22 1.22 0 0 0 0 1.71 1.14 1.14 0 0 0 .85.36 1.2 1.2 0 0 0 1.19-1.22z"/><path d="m16 110.06a1.9 1.9 0 0 1 -.56 1.37 1.8 1.8 0 0 1 -1.33.56 1.58 1.58 0 0 1 -1.29-.65v2.59h-.72v-5.72h.72v.56a1.58 1.58 0 0 1 1.29-.65 1.77 1.77 0 0 1 1.33.57 1.87 1.87 0 0 1 .56 1.37zm-.75 0a1.21 1.21 0 0 0 -1.2-1.21 1.12 1.12 0 0 0 -.84.36 1.22 1.22 0 0 0 0 1.71 1.17 1.17 0 0 0 1.69 0 1.14 1.14 0 0 0 .36-.87z"/><path d="m17.4 111.91h-.72v-6.43h.72z"/><path d="m21.37 110.06a2 2 0 0 1 -.42 1.29 1.58 1.58 0 0 1 -2.41 0 2 2 0 0 1 -.41-1.29v-1.85h.75v1.85a1.32 1.32 0 0 0 .19.76.77.77 0 0 0 .67.33.78.78 0 0 0 .68-.33 1.32 1.32 0 0 0 .2-.76v-1.85h.75z"/><path d="m25.75 111.85a1.71 1.71 0 0 1 -.55 1.33 2 2 0 0 1 -1.39.51 2.29 2.29 0 0 1 -1.62-.63l.46-.57a1.49 1.49 0 0 0 1.11.48c.84 0 1.26-.39 1.26-1.18v-.51a1.49 1.49 0 0 1 -1.24.63 1.9 1.9 0 1 1 0-3.79 1.5 1.5 0 0 1 1.24.62v-.53h.73zm-.75-1.85a1.16 1.16 0 0 0 -1.17-1.17 1.16 1.16 0 0 0 -.83.34 1.18 1.18 0 0 0 0 1.66 1.12 1.12 0 0 0 .83.34 1.13 1.13 0 0 0 .83-.34 1.17 1.17 0 0 0 .34-.83z"/><path d="m29.63 110.32h-3.14v-.81h3.14z"/><path d="m31.43 107.1a.51.51 0 0 1 -.5.5.47.47 0 0 1 -.35-.15.47.47 0 0 1 -.14-.35.45.45 0 0 1 .14-.35.48.48 0 0 1 .35-.14.52.52 0 0 1 .35.14.45.45 0 0 1 .15.35zm-.12 4.81h-.78v-3.7h.78z"/><path d="m35.58 111.91h-.73v-2.2c0-.59-.28-.89-.85-.89a1.18 1.18 0 0 0 -1.15 1.18v2h-.72v-3.7h.72v.63a1.68 1.68 0 0 1 1.38-.72 1.33 1.33 0 0 1 .89.29 1.43 1.43 0 0 1 .46 1.18z"/><path d="m39.37 110.84a.94.94 0 0 1 -.47.85 1.76 1.76 0 0 1 -1 .26 2.41 2.41 0 0 1 -1-.22 2.13 2.13 0 0 1 -.83-.58l.47-.53a2 2 0 0 0 1.36.6c.43 0 .64-.13.64-.39s-.19-.3-.58-.4a7.41 7.41 0 0 1 -1.07-.29.94.94 0 0 1 -.57-.9 1 1 0 0 1 .46-.85 1.7 1.7 0 0 1 1-.27 2.54 2.54 0 0 1 1.6.54l-.37.53a2.29 2.29 0 0 0 -1.24-.39.77.77 0 0 0 -.39.11.4.4 0 0 0 -.2.33c0 .17.19.31.57.41a7.38 7.38 0 0 1 1.06.32.92.92 0 0 1 .56.87z"/><path d="m44.12 109.8a.64.64 0 0 1 -.19.47.67.67 0 1 1 -1-1 .64.64 0 0 1 .47-.19.65.65 0 0 1 .67.67z"/><path d="m50.78 111.91h-.72v-2.2a.78.78 0 0 0 -.86-.89 1.08 1.08 0 0 0 -.79.34 1.11 1.11 0 0 0 -.35.8v2h-.72v-3.7h.72v.63a1.68 1.68 0 0 1 1.38-.72 1.34 1.34 0 0 1 .89.29 1.46 1.46 0 0 1 .45 1.18z"/><path d="m55.19 110.06a1.93 1.93 0 0 1 -1.94 1.94 1.9 1.9 0 0 1 -1.37-.56 1.87 1.87 0 0 1 -.57-1.37 1.84 1.84 0 0 1 .57-1.37 1.87 1.87 0 0 1 1.37-.57 1.95 1.95 0 0 1 1.94 1.94zm-.74 0a1.17 1.17 0 0 0 -.35-.85 1.17 1.17 0 0 0 -1.69 0 1.2 1.2 0 0 0 0 1.71 1.17 1.17 0 0 0 1.69 0 1.18 1.18 0 0 0 .35-.87z"/><path d="m60 107a.49.49 0 0 1 -.43.55.5.5 0 0 1 -.14-1 .51.51 0 0 1 .57.45zm-1.2 7-.53.1v-.76c.31-.08.6-.08.75-.39a1 1 0 0 0 .09-.45v-4.38h.78v4.58a1.41 1.41 0 0 1 -.17.66 1.49 1.49 0 0 1 -.96.73z"/><path d="m64.1 111.91h-.74v-.51a1.27 1.27 0 0 1 -1.11.51 1.77 1.77 0 0 1 -1.3-.54 1.79 1.79 0 0 1 -.54-1.31 1.82 1.82 0 0 1 .54-1.31 1.77 1.77 0 0 1 1.3-.54 1.39 1.39 0 0 1 1.11.51v-.51h.74zm-.74-1.85a1.11 1.11 0 0 0 -1.11-1.1 1 1 0 0 0 -.77.32 1.07 1.07 0 0 0 -.33.78 1.08 1.08 0 0 0 1.1 1.09 1.06 1.06 0 0 0 .78-.32 1 1 0 0 0 .33-.77z"/><path d="m68.55 108.21-2 3.7-2-3.7h.85l1.15 2.14 1.14-2.14z"/><path d="m72.15 111.91h-.74v-.51a1.27 1.27 0 0 1 -1.11.51 1.77 1.77 0 0 1 -1.3-.54 1.79 1.79 0 0 1 -.54-1.31 1.82 1.82 0 0 1 .54-1.31 1.77 1.77 0 0 1 1.3-.54 1.39 1.39 0 0 1 1.11.51v-.51h.74zm-.74-1.85a1.11 1.11 0 0 0 -1.89-.78 1.1 1.1 0 0 0 -.32.78 1.08 1.08 0 0 0 1.1 1.09 1.06 1.06 0 0 0 .78-.32 1 1 0 0 0 .33-.77z"/><path d="m75.93 110.84a1 1 0 0 1 -.47.85 1.76 1.76 0 0 1 -1 .26 2.41 2.41 0 0 1 -1-.22 2.06 2.06 0 0 1 -.83-.58l.47-.53a2 2 0 0 0 1.36.6c.43 0 .64-.13.64-.39s-.19-.3-.58-.4a7 7 0 0 1 -1.07-.29.94.94 0 0 1 -.57-.9 1 1 0 0 1 .46-.85 1.7 1.7 0 0 1 1-.27 2.56 2.56 0 0 1 1.6.54l-.38.53a2.23 2.23 0 0 0 -1.23-.39.77.77 0 0 0 -.39.11.4.4 0 0 0 -.2.33c0 .17.19.31.57.41a7.38 7.38 0 0 1 1.06.32.92.92 0 0 1 .56.87z"/><path d="m79.69 108.73-.39.68a1.06 1.06 0 0 0 -.51-.34 1.92 1.92 0 0 0 -.61-.11 1 1 0 0 0 -.77.32 1.07 1.07 0 0 0 -.33.78 1.08 1.08 0 0 0 1.1 1.09 2.52 2.52 0 0 0 1.38-.41v.76a2.66 2.66 0 0 1 -1.38.41 1.84 1.84 0 0 1 -1.84-1.85 1.82 1.82 0 0 1 .54-1.31 1.78 1.78 0 0 1 1.3-.54 2.53 2.53 0 0 1 .8.13 1.83 1.83 0 0 1 .71.39z"/><path d="m82.68 108.21-.29.82a.78.78 0 0 0 -.31-.06.82.82 0 0 0 -.66.35 1.13 1.13 0 0 0 -.25.73v1.86h-.75v-3.7h.75v.79a1.22 1.22 0 0 1 1.15-.82 1 1 0 0 1 .36.03z"/><path d="m84.17 107.1a.49.49 0 0 1 -.15.35.49.49 0 0 1 -.36.15.46.46 0 0 1 -.34-.15.47.47 0 0 1 -.14-.35.45.45 0 0 1 .14-.35.48.48 0 0 1 .34-.14.52.52 0 0 1 .36.14.45.45 0 0 1 .15.35zm-.12 4.81h-.78v-3.7h.78z"/><path d="m88.77 110.06a1.9 1.9 0 0 1 -.56 1.37 1.8 1.8 0 0 1 -1.33.56 1.58 1.58 0 0 1 -1.29-.65v2.59h-.72v-5.72h.72v.56a1.58 1.58 0 0 1 1.29-.65 1.77 1.77 0 0 1 1.33.57 1.87 1.87 0 0 1 .56 1.37zm-.75 0a1.21 1.21 0 0 0 -1.2-1.21 1.12 1.12 0 0 0 -.84.36 1.22 1.22 0 0 0 0 1.71 1.17 1.17 0 0 0 1.69 0 1.14 1.14 0 0 0 .33-.87z"/><path d="m91.16 109h-.71v2.93h-.78v-2.93h-.67v-.77h.72v-2h.78v2h.71z"/><path d="m95.84 109.8a.68.68 0 0 1 -.67.67.67.67 0 0 1 -.48-.2.64.64 0 0 1 -.19-.47.65.65 0 0 1 .19-.48.66.66 0 0 1 .48-.19.64.64 0 0 1 .47.19.66.66 0 0 1 .2.48z"/><path d="m102.5 111.91h-.73v-2.2c0-.59-.28-.89-.85-.89a1.18 1.18 0 0 0 -1.15 1.18v2h-.72v-3.7h.72v.63a1.68 1.68 0 0 1 1.38-.72 1.33 1.33 0 0 1 .89.29 1.43 1.43 0 0 1 .46 1.18z"/><path d="m106.91 110.06a1.87 1.87 0 0 1 -.57 1.37 2 2 0 0 1 -2.74 0 1.87 1.87 0 0 1 -.57-1.37 1.95 1.95 0 0 1 1.94-1.94 1.87 1.87 0 0 1 1.37.57 1.84 1.84 0 0 1 .57 1.37zm-.75 0a1.19 1.19 0 0 0 -1.19-1.21 1.14 1.14 0 0 0 -.85.36 1.22 1.22 0 0 0 0 1.71 1.14 1.14 0 0 0 .85.36 1.2 1.2 0 0 0 1.19-1.22z"/><path d="m113.79 111.85a1.75 1.75 0 0 1 -.55 1.33 2 2 0 0 1 -1.39.51 2.29 2.29 0 0 1 -1.62-.63l.46-.57a1.49 1.49 0 0 0 1.11.48c.84 0 1.26-.39 1.26-1.18v-.51a1.49 1.49 0 0 1 -1.24.63 1.9 1.9 0 1 1 0-3.79 1.5 1.5 0 0 1 1.24.62v-.53h.73zm-.79-1.85a1.16 1.16 0 0 0 -1.17-1.17 1.16 1.16 0 0 0 -.83.34 1.16 1.16 0 0 0 0 1.66 1.12 1.12 0 0 0 .83.34 1.13 1.13 0 0 0 .83-.34 1.17 1.17 0 0 0 .34-.83z"/><path d="m117.88 110.06a2.45 2.45 0 0 1 0 .27h-2.79a1 1 0 0 0 .38.59 1 1 0 0 0 .64.23 1.25 1.25 0 0 0 1.17-.56l.57.46a2.07 2.07 0 0 1 -1.74.86 1.67 1.67 0 0 1 -1.26-.55 1.88 1.88 0 0 1 0-2.6 1.64 1.64 0 0 1 1.26-.55 1.67 1.67 0 0 1 1.27.55 1.86 1.86 0 0 1 .5 1.3zm-.77-.32a1.1 1.1 0 0 0 -.39-.56 1 1 0 0 0 -.63-.22 1 1 0 0 0 -.63.22 1.09 1.09 0 0 0 -.38.56z"/><path d="m123.66 111.91h-.75v-2.12a1.22 1.22 0 0 0 -.14-.59.51.51 0 0 0 -.46-.29.77.77 0 0 0 -.66.33 1.4 1.4 0 0 0 -.22.8v1.87h-.75v-2.12a1.25 1.25 0 0 0 -.14-.59.53.53 0 0 0 -.47-.29.74.74 0 0 0 -.65.34 1.36 1.36 0 0 0 -.21.79v1.87h-.75v-3.7h.75v.67a1.57 1.57 0 0 1 .93-.65.65.65 0 0 1 .2 0 1 1 0 0 1 .58.18 1 1 0 0 1 .43.58 1.62 1.62 0 0 1 1-.74.68.68 0 0 1 .2 0 1 1 0 0 1 .73.29 1.34 1.34 0 0 1 .36 1z"/><path d="m127.38 110.84a1 1 0 0 1 -.47.85 1.76 1.76 0 0 1 -1 .26 2.41 2.41 0 0 1 -1-.22 2.06 2.06 0 0 1 -.83-.58l.47-.53a2 2 0 0 0 1.36.6c.43 0 .64-.13.64-.39s-.19-.3-.58-.4a7 7 0 0 1 -1.07-.29.94.94 0 0 1 -.57-.9 1 1 0 0 1 .46-.85 1.7 1.7 0 0 1 1-.27 2.56 2.56 0 0 1 1.6.54l-.38.53a2.23 2.23 0 0 0 -1.23-.39.77.77 0 0 0 -.39.11.4.4 0 0 0 -.2.33c0 .17.19.31.57.41a7.38 7.38 0 0 1 1.06.32.92.92 0 0 1 .56.87z"/><path d="m17 80.72a6.5 6.5 0 0 1 -2 4.77 6.4 6.4 0 0 1 -4.77 2h-3.58v7h-2.72v-20.49h6.3a6.5 6.5 0 0 1 4.77 2 6.58 6.58 0 0 1 2 4.72zm-2.58 0a4 4 0 0 0 -1.22-2.94 4.08 4.08 0 0 0 -2.95-1.23h-3.6v8.3h3.57a4.12 4.12 0 0 0 3-1.22 3.93 3.93 0 0 0 1.17-2.91z"/><path d="m28.75 88.58a6.33 6.33 0 0 1 -1.34 4.11 4.73 4.73 0 0 1 -3.86 1.76 4.69 4.69 0 0 1 -3.83-1.76 6.37 6.37 0 0 1 -1.32-4.11v-5.93h2.4v5.93a4.29 4.29 0 0 0 .61 2.42 2.43 2.43 0 0 0 2.14 1.07 2.46 2.46 0 0 0 2.16-1.07 4.13 4.13 0 0 0 .64-2.41v-5.94h2.4z"/><path d="m38.26 82.65-.92 2.63a2.72 2.72 0 0 0 -1-.18 2.61 2.61 0 0 0 -2.13 1.1 3.75 3.75 0 0 0 -.78 2.32v5.93h-2.43v-11.8h2.4v2.42a3.87 3.87 0 0 1 3.65-2.61 4.06 4.06 0 0 1 1.21.19z"/><path d="m50 88.57a5.19 5.19 0 0 1 -.07.87h-8.93a3.35 3.35 0 0 0 1.19 1.87 3.19 3.19 0 0 0 2.06.75 4 4 0 0 0 3.75-1.81l1.81 1.46a6.52 6.52 0 0 1 -5.53 2.74 5.35 5.35 0 0 1 -4-1.74 6 6 0 0 1 0-8.3 5.51 5.51 0 0 1 8.07 0 5.84 5.84 0 0 1 1.65 4.16zm-2.46-1a3.57 3.57 0 0 0 -1.22-1.79 3.2 3.2 0 0 0 -4 0 3.59 3.59 0 0 0 -1.23 1.79z"/><path d="m75 94.45h-12.85v-20.45h2.71v17.71h10.14z"/><path d="m80.28 79.11a1.64 1.64 0 0 1 -1.6 1.61 1.46 1.46 0 0 1 -1.1-.48 1.54 1.54 0 0 1 -.46-1.13 1.54 1.54 0 0 1 1.56-1.55 1.57 1.57 0 0 1 1.13.45 1.48 1.48 0 0 1 .47 1.1zm-.38 15.34h-2.48v-11.8h2.48z"/><path d="m93.51 100.91h-2.4v-8.09a4.45 4.45 0 0 1 -3.54 1.63 5.9 5.9 0 0 1 0-11.8 4.09 4.09 0 0 1 3.54 1.63v-1.63h2.4zm-2.4-12.33a3.57 3.57 0 0 0 -3.54-3.58 3.3 3.3 0 0 0 -2.45 1 3.39 3.39 0 0 0 -1 2.49 3.48 3.48 0 0 0 3.48 3.48 3.46 3.46 0 0 0 2.5-1 3.35 3.35 0 0 0 1.01-2.39z"/><path d="m106.15 88.58a6.33 6.33 0 0 1 -1.34 4.11 4.71 4.71 0 0 1 -3.81 1.76 4.66 4.66 0 0 1 -3.83-1.76 6.32 6.32 0 0 1 -1.33-4.11v-5.93h2.4v5.93a4.29 4.29 0 0 0 .57 2.42 2.7 2.7 0 0 0 4.3 0 4.13 4.13 0 0 0 .64-2.41v-5.94h2.4z"/><path d="m111.09 79.11a1.62 1.62 0 0 1 -1.6 1.61 1.47 1.47 0 0 1 -1.1-.48 1.54 1.54 0 0 1 -.46-1.13 1.54 1.54 0 0 1 1.56-1.55 1.59 1.59 0 0 1 1.14.45 1.47 1.47 0 0 1 .46 1.1zm-.37 15.34h-2.48v-11.8h2.48z"/><path d="m124.29 94.45h-2.37v-1.6a4 4 0 0 1 -3.53 1.6 5.89 5.89 0 0 1 -5.88-5.87 5.74 5.74 0 0 1 1.73-4.18 5.6 5.6 0 0 1 4.15-1.75 4.41 4.41 0 0 1 3.53 1.63v-10.28h2.37zm-2.37-5.87a3.36 3.36 0 0 0 -1-2.49 3.4 3.4 0 0 0 -2.49-1 3.57 3.57 0 0 0 -3.51 3.54 3.31 3.31 0 0 0 1 2.46 3.4 3.4 0 0 0 2.48 1 3.45 3.45 0 0 0 2.49-1 3.31 3.31 0 0 0 1.03-2.51z"/><path d="m48.3 58.25a27.87 27.87 0 0 0 5.55-8.75s.62 5.5-5.55 8.75zm-2.22-27.07s-9.63 11.87-9.63 17.94 4.35 11.08 9.63 11.08 9.63-5 9.63-11.08-9.63-17.94-9.63-17.94z"/><path d="m73.28 65.11a46.67 46.67 0 0 0 9.3-14.64s1.03 9.12-9.3 14.64zm3-39.34c-3.7-5.73-7.39-10.55-8.91-12.5-1.53 2-5.23 6.77-8.92 12.5a97.82 97.82 0 0 0 -6.15 10.77c2.61 4 5.3 9 5.3 12.58a13.41 13.41 0 0 1 -5.39 11 21.93 21.93 0 0 0 2.16 3 16.61 16.61 0 0 0 26 0 23.13 23.13 0 0 0 5.49-15.14c0-5.66-4.72-14.73-9.56-22.16z"/><path d="m84.75 37 .2.46c.14.29.26.59.39.88a24.61 24.61 0 0 0 4.58-7.34s.52 4.59-4.53 7.51c.15.36.3.72.43 1.07a9.85 9.85 0 0 0 6-9.36c0-5.17-7.66-14.67-8-15.07l-.73-.91-.73.91a64.16 64.16 0 0 0 -5.49 8l1 1.56a100.12 100.12 0 0 1 6.88 12.29z"/></g></svg>